<?xml version="1.0" standalone="no"?>
<!DOCTYPE svg PUBLIC "-//W3C//DTD SVG 20010904//EN"
 "http://www.w3.org/TR/2001/REC-SVG-20010904/DTD/svg10.dtd">
<svg version="1.0" xmlns="http://www.w3.org/2000/svg"
 width="1393.000000pt" height="1341.000000pt" viewBox="0 0 1393.000000 1341.000000"
 preserveAspectRatio="xMidYMid meet">

<g transform="translate(0.000000,1341.000000) scale(0.100000,-0.100000)"
fill="#000000" stroke="none">
<path d="M3033 12550 l-1792 -5 -22 -21 -21 -22 -2 -3808 c-1 -3629 0 -3815
17 -3934 97 -670 325 -1229 707 -1735 342 -453 771 -808 1290 -1066 369 -184
600 -263 930 -319 637 -108 1285 -61 1846 133 222 77 219 76 409 164 273 127
462 238 675 399 461 348 825 797 1091 1348 66 137 157 354 162 385 1 9 5 21 8
26 4 6 14 35 24 65 10 30 21 59 25 63 7 8 80 -108 80 -128 0 -7 9 -24 20 -38
11 -14 20 -31 20 -37 0 -7 8 -24 18 -38 16 -24 42 -72 95 -177 8 -16 20 -41
25 -55 5 -14 30 -72 56 -128 25 -57 46 -110 46 -118 0 -8 4 -22 9 -32 33 -63
100 -223 105 -252 4 -19 20 -75 36 -125 78 -243 117 -394 139 -542 6 -39 15
-83 21 -98 5 -14 10 -44 10 -65 0 -21 5 -51 10 -66 6 -15 17 -122 26 -238 18
-249 11 -619 -12 -731 -9 -38 -17 -91 -19 -117 -2 -25 -8 -55 -13 -65 -5 -10
-12 -47 -16 -82 l-7 -63 178 -183 c98 -100 181 -183 186 -184 4 0 7 6 7 15 0
8 4 13 9 9 5 -3 12 4 16 15 4 11 10 18 15 15 5 -3 11 4 15 15 4 11 11 18 16
15 5 -4 9 -1 9 6 0 15 66 80 73 73 3 -3 8 4 12 15 3 12 11 19 16 16 5 -4 9 -2
9 4 0 14 66 82 73 75 3 -3 8 4 12 15 3 12 11 19 16 16 5 -4 9 -2 9 4 0 14 96
112 103 105 3 -3 8 4 12 15 3 12 10 19 15 16 4 -3 11 7 14 21 4 15 9 24 13 21
3 -3 15 5 28 18 12 14 25 22 28 19 3 -3 8 4 12 15 3 12 10 19 15 16 4 -3 11 7
14 20 4 14 11 23 16 20 5 -3 12 4 15 16 4 11 9 18 12 15 3 -2 15 6 28 19 12
14 25 22 28 19 3 -4 9 5 13 20 3 14 10 24 14 21 5 -3 11 4 15 15 4 11 10 18
15 15 5 -3 11 4 15 15 4 11 11 18 16 15 5 -4 9 -1 9 5 0 6 4 8 10 5 5 -3 12 6
16 20 3 13 10 23 14 20 5 -3 11 4 15 15 4 11 10 18 15 15 5 -3 11 4 15 15 4
11 11 18 16 15 5 -4 9 -1 9 5 0 6 4 8 10 5 6 -4 7 1 3 12 -3 10 -3 15 2 11 8
-8 45 28 45 44 0 5 4 7 9 3 5 -3 12 4 16 15 4 11 10 18 15 15 5 -3 11 4 15 15
4 11 11 18 16 15 5 -4 9 -1 9 5 0 6 4 9 9 6 5 -3 12 6 15 19 4 14 11 23 16 20
5 -3 11 4 15 15 4 11 10 18 15 15 5 -3 11 4 15 15 4 11 11 18 16 15 5 -4 9 -1
9 5 0 6 4 8 10 5 6 -4 7 1 3 11 -4 12 -3 15 5 10 7 -4 12 -1 12 9 0 9 4 14 9
10 5 -3 12 4 16 15 4 11 10 18 15 15 5 -3 11 4 15 15 4 11 10 18 15 15 5 -3
11 4 15 15 4 11 11 18 16 15 5 -4 9 1 9 10 0 9 4 14 9 10 5 -3 12 4 16 15 4
11 10 18 15 15 5 -3 11 4 15 15 4 11 10 18 15 15 5 -3 11 4 15 15 4 11 11 18
16 15 5 -4 9 -2 9 3 0 13 36 53 43 46 3 -3 8 4 12 15 3 12 10 19 15 16 5 -3
11 4 15 15 4 11 11 18 16 15 5 -4 9 -2 9 3 0 13 36 53 43 46 3 -3 8 4 12 15 3
12 10 19 15 16 5 -3 11 4 15 15 4 11 11 18 16 15 5 -4 9 -2 9 4 0 14 66 82 73
75 3 -3 8 4 12 15 3 12 10 19 15 16 5 -3 11 4 15 15 4 11 11 18 16 15 5 -4 9
-1 9 6 0 15 66 80 73 73 3 -3 8 4 12 15 3 12 11 19 16 16 5 -4 9 -1 9 6 0 15
66 80 73 73 3 -3 8 4 12 15 3 12 10 19 15 16 5 -3 12 6 16 20 3 14 8 24 11 21
3 -2 22 13 42 35 21 21 41 36 44 33 3 -4 9 5 13 20 3 14 10 24 14 21 5 -3 12
4 15 16 4 11 9 18 12 15 3 -2 15 6 28 19 12 14 25 22 28 19 3 -3 8 4 12 15 3
12 10 21 15 21 5 0 12 9 15 20 4 11 10 18 15 15 5 -3 12 4 15 16 4 11 9 18 12
15 3 -2 15 6 28 19 12 14 24 22 27 19 3 -3 9 7 12 21 4 14 11 23 16 20 5 -3
11 4 15 15 4 11 10 18 15 15 5 -3 11 4 15 15 4 11 11 18 16 15 5 -4 9 -1 9 5
0 6 4 8 10 5 5 -3 12 6 16 20 3 13 10 23 14 20 5 -3 11 4 15 15 4 11 10 18 15
15 5 -3 12 4 15 16 4 11 9 18 12 16 6 -7 43 30 43 44 0 5 4 8 9 4 5 -3 12 4
16 15 4 11 10 18 15 15 5 -3 11 4 15 15 4 11 10 18 15 15 5 -3 12 4 15 16 4
11 9 18 12 15 7 -7 43 33 43 46 0 5 4 7 9 3 5 -3 12 4 16 15 4 11 10 18 15 15
5 -3 11 4 15 15 4 11 11 18 16 15 5 -4 9 -2 9 3 0 13 36 53 43 46 3 -3 8 4 12
15 3 12 10 19 15 16 5 -3 11 4 15 15 4 11 11 18 16 15 5 -4 9 -2 9 3 0 13 36
53 43 46 3 -3 8 4 12 15 3 12 10 19 15 16 5 -3 11 4 15 15 4 11 10 18 15 15 5
-3 11 4 15 15 4 11 11 18 16 15 5 -4 9 0 9 7 0 15 36 49 43 41 3 -2 8 5 12 16
3 12 10 19 15 16 5 -3 11 4 15 15 4 11 11 18 16 15 5 -4 9 -1 9 6 0 15 66 80
73 73 3 -3 8 4 12 15 3 12 11 19 16 16 5 -4 9 -2 9 4 0 14 66 82 73 75 3 -3 8
4 12 15 3 12 11 19 16 16 5 -4 9 -2 9 4 0 14 96 112 103 105 3 -3 8 4 12 15 3
12 10 21 15 21 5 0 12 9 15 21 4 11 9 18 12 15 3 -2 15 6 28 19 12 14 25 22
28 19 3 -3 8 4 12 15 3 12 10 19 15 16 4 -3 11 7 14 20 4 14 11 23 16 20 5 -3
12 4 15 16 4 11 9 18 12 15 3 -2 15 6 28 19 12 14 25 22 28 19 3 -4 9 5 13 20
3 14 10 23 15 20 5 -3 9 3 9 14 0 12 -67 84 -172 186 l-172 166 -60 -1 c-34
-1 -76 -8 -95 -16 -18 -7 -46 -13 -61 -13 -15 0 -70 -8 -121 -19 -125 -25
-480 -36 -684 -21 -82 6 -173 13 -202 15 -53 3 -243 34 -254 40 -3 2 -51 11
-106 19 -111 17 -272 54 -288 66 -5 5 -28 11 -50 15 -22 4 -44 11 -50 15 -5 4
-32 11 -59 15 -27 3 -57 11 -67 16 -11 5 -28 14 -39 19 -11 6 -27 10 -35 10
-18 0 -129 37 -165 55 -14 7 -38 18 -55 25 -16 6 -43 18 -58 26 -16 8 -34 14
-42 14 -12 0 -51 16 -150 60 -22 10 -58 24 -80 33 -54 21 -139 62 -200 98 -27
16 -57 32 -65 35 -8 3 -22 9 -30 14 -8 5 -52 28 -97 51 -46 23 -83 45 -83 49
0 8 44 24 210 80 255 87 549 231 802 395 29 19 58 38 63 43 6 5 24 17 40 28
32 20 91 64 141 104 17 14 50 41 74 60 190 153 426 401 600 629 37 49 166 243
217 326 87 143 205 392 273 575 349 938 295 2011 -147 2893 -54 110 -114 218
-157 287 -38 59 -120 184 -128 195 -4 6 -29 39 -55 75 -26 36 -58 79 -72 96
-15 17 -46 55 -71 85 -48 58 -353 366 -409 413 -624 524 -1358 817 -2166 866
-173 10 -2189 10 -5762 0z m4072 -1940 c1619 -7 1652 -8 1762 -28 642 -121
1153 -569 1348 -1182 51 -161 66 -261 72 -475 5 -176 3 -216 -17 -330 -79
-469 -341 -877 -735 -1146 -198 -136 -408 -220 -685 -276 -78 -15 -237 -17
-1917 -20 l-1833 -4 0 -927 c0 -510 -4 -977 -10 -1039 -12 -149 -42 -268 -94
-379 -57 -120 -93 -172 -185 -267 -200 -207 -429 -303 -721 -301 -112 1 -152
6 -235 28 -381 100 -662 405 -730 791 -11 67 -14 527 -17 2775 -3 2554 -2
2697 14 2723 21 31 50 48 98 58 45 9 1798 9 3885 -1z"/>
</g>
</svg>
